<svg xmlns="http://www.w3.org/2000/svg" viewBox="0 0 360 240" width="360" height="240">
  <rect width="360" height="240" fill="#f8fafc" rx="20" />
  <g transform="translate(40 50)">
    <rect x="0" y="0" width="260" height="140" fill="#ffffff" stroke="#e2e8f0" rx="16" />
    <path d="M30 110 C60 90 90 100 120 70 C150 40 180 60 210 50" stroke="#2563eb" stroke-width="4" fill="none" stroke-linecap="round" />
    <path d="M30 110 C60 100 90 110 120 90 C150 70 180 92 210 95" stroke="#22c55e" stroke-width="3" fill="none" stroke-linecap="round" opacity="0.7" />
    <path d="M30 110 C60 104 90 120 120 120 C150 120 180 108 210 100" stroke="#f97316" stroke-width="3" fill="none" stroke-linecap="round" opacity="0.6" />
    <text x="20" y="24" font-size="11" font-family="Inter, Arial" fill="#475569">小学</text>
    <text x="110" y="24" font-size="11" font-family="Inter, Arial" fill="#475569">初中</text>
    <text x="200" y="24" font-size="11" font-family="Inter, Arial" fill="#475569">高中</text>
    <text x="20" y="132" font-size="10" font-family="Inter, Arial" fill="#94a3b8">能力得分</text>
  </g>
  <text x="40" y="222" font-size="14" font-family="Inter, Arial" fill="#475569">蓝：讲解能力 · 绿：互动反馈 · 橙：情绪陪伴</text>
  <text x="40" y="34" font-size="16" font-family="Inter, Arial" fill="#1f2937" font-weight="600">Competency Tracks</text>
</svg>
