<svg xmlns="http://www.w3.org/2000/svg" viewBox="0 0 360 240" width="360" height="240">
  <rect width="360" height="240" fill="#f1f5f9" rx="20" />
  <g transform="translate(40 40)">
    <line x1="0" y1="160" x2="260" y2="160" stroke="#cbd5f5" stroke-width="2" stroke-dasharray="4 6" />
    <line x1="0" y1="120" x2="260" y2="120" stroke="#cbd5f5" stroke-width="2" stroke-dasharray="4 6" />
    <line x1="0" y1="80" x2="260" y2="80" stroke="#cbd5f5" stroke-width="2" stroke-dasharray="4 6" />
    <line x1="0" y1="40" x2="260" y2="40" stroke="#cbd5f5" stroke-width="2" stroke-dasharray="4 6" />
    <polyline points="0,150 60,120 120,96 180,70 240,52 260,48" fill="none" stroke="#2563eb" stroke-width="4" stroke-linecap="round" stroke-linejoin="round" />
    <polyline points="0,150 60,132 120,118 180,90 220,70 260,65" fill="none" stroke="#f97316" stroke-width="3" stroke-linecap="round" stroke-linejoin="round" opacity="0.6" />
    <circle cx="180" cy="70" r="6" fill="#2563eb" />
    <text x="-8" y="168" font-size="10" font-family="Inter, Arial" fill="#475569">文本</text>
    <text x="-8" y="128" font-size="10" font-family="Inter, Arial" fill="#475569">图像</text>
    <text x="-8" y="88" font-size="10" font-family="Inter, Arial" fill="#475569">图文</text>
    <text x="-8" y="48" font-size="10" font-family="Inter, Arial" fill="#475569">多模态</text>
    <text x="50" y="182" font-size="11" font-family="Inter, Arial" fill="#475569">任务难度 →</text>
  </g>
  <text x="40" y="30" font-size="16" font-family="Inter, Arial" fill="#1f2937" font-weight="600">Modality Spectrum</text>
</svg>
